<?xml version="1.0" encoding="UTF-8"?>
<svg width="128" height="128" version="1.1" viewBox="0 0 33.867 33.867" xmlns="http://www.w3.org/2000/svg">
 <path d="m16.933 5.6628c-6.2242 0-11.27 5.0462-11.27 11.27s5.0462 11.27 11.27 11.27 11.27-5.0452 11.27-11.27-5.0462-11.27-11.27-11.27zm-6.5619 5.1274h4.3838v0.50282c-0.22339 0-0.33487 0.10219-0.33487 0.30696 0 0.093079 0.055739 0.21436 0.16743 0.36329s0.25156 0.32543 0.4191 0.5302l1.9544 2.3735 2.1224-2.5968c0.29785-0.3537 0.44649-0.60504 0.44649-0.75397s-0.12077-0.22324-0.36277-0.22324v-0.50282h4.2721v0.50282c-0.29785 0-0.5399 0.092899-0.72606 0.27906l-4.2163 5.0824 3.8815 4.8866c0.14893 0.16754 0.32543 0.38172 0.53021 0.64234 0.20477 0.26062 0.44683 0.39068 0.72606 0.39068v0.50282h-4.2721v-0.50282c0.13031-0.018613 0.19534-0.092932 0.19534-0.22324 0-0.055847-0.10219-0.24216-0.30696-0.55863l-2.4293-2.988-2.3735 2.9042c-0.26062 0.31647-0.39119 0.53994-0.39119 0.67025 0 0.13031 0.084126 0.19534 0.25167 0.19534v0.50282h-4.0768v-0.50282c0.11169 0 0.24175-0.02787 0.39068-0.083717 0.16754-0.055846 0.3167-0.16784 0.44701-0.33538l4.2442-5.2214-3.8536-4.8029c-0.26062-0.31647-0.4748-0.53065-0.64234-0.64234-0.16754-0.13031-0.31618-0.19534-0.44649-0.19534v-0.50282z" fill="#ee4e5f"/>
</svg>
