<?xml version="1.0" encoding="UTF-8"?>
<svg width="128" height="128" version="1.1" viewBox="0 0 33.867 33.867" xmlns="http://www.w3.org/2000/svg">
 <g transform="translate(.39666 .39685)">
  <rect x="3.9688" y="6.6146" width="1.3229" height="19.844" ry="0" fill="#8b8d8a"/>
  <rect x="27.782" y="6.6146" width="1.3229" height="19.844" ry="0" fill="#8b8d8a"/>
  <path d="m6.6152 9.5256v1.0583h0.52917c0.17198 0 0.28832 0.05775 0.45941 0.22273 0.11172 0.10773 0.22997 0.26253 0.35347 0.43822-0.12352 0.17514-0.24173 0.32892-0.35347 0.43667-0.17109 0.16498-0.28743 0.2248-0.45941 0.2248h-0.52917v1.0583h0.52917c0.48948 0 0.9018-0.23784 1.1937-0.51935 0.094839-0.09145 0.18038-0.18779 0.26045-0.28629 0.080071 0.0985 0.16613 0.19484 0.26097 0.28629 0.29194 0.28151 0.7058 0.51935 1.1953 0.51935h1.0583c0.48948 0 0.9018-0.23784 1.1937-0.51935 0.09484-0.09145 0.18038-0.18779 0.26045-0.28629 0.08007 0.0985 0.16613 0.19484 0.26097 0.28629 0.29194 0.28151 0.7058 0.51935 1.1953 0.51935h1.0583c0.48948 0 0.9018-0.23784 1.1937-0.51935 0.09484-0.09145 0.18038-0.18779 0.26045-0.28629 0.08007 0.0985 0.16613 0.19484 0.26097 0.28629 0.29194 0.28151 0.7058 0.51935 1.1953 0.51935h0.52917v-1.0583h-0.52917c-0.17198 0-0.2878-0.05982-0.45889-0.2248-0.1117-0.10772-0.23096-0.26159-0.35502-0.43667 0.12404-0.17562 0.24333-0.33052 0.35502-0.43822 0.17109-0.16498 0.28691-0.22273 0.45889-0.22273h0.52917v-1.0583h-0.52917c-0.48948 0-0.90335 0.23784-1.1953 0.51935-0.09484 0.09145-0.1809 0.18779-0.26097 0.28629-0.08007-0.0985-0.16561-0.19484-0.26045-0.28629-0.29194-0.28151-0.70426-0.51935-1.1937-0.51935h-1.0583c-0.48948 0-0.90335 0.23784-1.1953 0.51935-0.09484 0.09145-0.1809 0.18779-0.26097 0.28629-0.08007-0.0985-0.16561-0.19484-0.26045-0.28629-0.29194-0.28151-0.70425-0.51935-1.1937-0.51935h-1.0583c-0.48948 0-0.90335 0.23784-1.1953 0.51935-0.094839 0.09145-0.1809 0.18779-0.26097 0.28629-0.080071-0.0985-0.16561-0.19484-0.26045-0.28629-0.29194-0.28151-0.70425-0.51935-1.1937-0.51935zm15.875 0v1.0583h0.52917c0.17198 0 0.28832 0.05775 0.45941 0.22273 0.11172 0.10773 0.22997 0.26253 0.35347 0.43822-0.12352 0.17514-0.24173 0.32892-0.35347 0.43667-0.17109 0.16498-0.28743 0.2248-0.45941 0.2248h-0.52917v1.0583h0.52917c0.48948 0 0.9018-0.23784 1.1937-0.51935 0.09484-0.09145 0.18038-0.18779 0.26045-0.28629 0.08007 0.0985 0.16613 0.19484 0.26097 0.28629 0.29194 0.28151 0.7058 0.51935 1.1953 0.51935h0.52917v-1.0583h-0.52917c-0.17198 0-0.2878-0.05982-0.45889-0.2248-0.1117-0.10772-0.23096-0.26159-0.35502-0.43667 0.12404-0.17562 0.24333-0.33052 0.35502-0.43822 0.17109-0.16498 0.28691-0.22273 0.45889-0.22273h0.52917v-1.0583h-0.52917c-0.48948 0-0.90335 0.23784-1.1953 0.51935-0.09484 0.09145-0.1809 0.18779-0.26097 0.28629-0.08007-0.0985-0.16561-0.19484-0.26045-0.28629-0.29194-0.28151-0.70426-0.51935-1.1937-0.51935zm-12.436 1.0583h1.0583c0.17198 0 0.28832 0.05775 0.45941 0.22273 0.11172 0.10773 0.22997 0.26253 0.35347 0.43822-0.12352 0.17514-0.24173 0.32892-0.35347 0.43667-0.17109 0.16498-0.28743 0.2248-0.45941 0.2248h-1.0583c-0.17198 0-0.2878-0.05982-0.45889-0.2248-0.1117-0.10772-0.23096-0.26159-0.35502-0.43667 0.12404-0.17562 0.24333-0.33052 0.35502-0.43822 0.17109-0.16498 0.28691-0.22273 0.45889-0.22273zm3.9688 0h1.0583c0.17198 0 0.28832 0.05775 0.45941 0.22273 0.11172 0.10773 0.22997 0.26253 0.35347 0.43822-0.12352 0.17514-0.24173 0.32892-0.35347 0.43667-0.17109 0.16498-0.28743 0.2248-0.45941 0.2248h-1.0583c-0.17198 0-0.2878-0.05982-0.45889-0.2248-0.1117-0.10772-0.23096-0.26159-0.35502-0.43667 0.12404-0.17562 0.24333-0.33052 0.35502-0.43822 0.17109-0.16498 0.28691-0.22273 0.45889-0.22273zm-7.4084 4.2323v1.0589h0.52917c0.17198 0 0.28832 0.0593 0.45941 0.22428 0.11168 0.1077 0.2295 0.26215 0.35295 0.43719-0.1234 0.17553-0.24131 0.33057-0.35295 0.43822-0.17109 0.16498-0.28743 0.22221-0.45941 0.22221h-0.52917v1.0589h0.52917c0.48948 0 0.9018-0.23784 1.1937-0.51935 0.094879-0.09149 0.18035-0.18826 0.26045-0.28681 0.0801 0.09854 0.16609 0.19532 0.26097 0.28681 0.29194 0.28151 0.7058 0.51935 1.1953 0.51935h0.52917v-1.0589h-0.52917c-0.17198 0-0.2878-0.05723-0.45889-0.22221-0.11166-0.10767-0.23102-0.26265-0.35502-0.43822 0.12406-0.17508 0.24332-0.32947 0.35502-0.43719 0.17109-0.16498 0.28691-0.22428 0.45889-0.22428h0.52917v-1.0589h-0.52917c-0.48948 0-0.90335 0.23991-1.1953 0.52142-0.09484 0.09145-0.1809 0.18807-0.26097 0.28629-0.080071-0.09822-0.16561-0.19484-0.26045-0.28629-0.29194-0.28151-0.70425-0.52142-1.1937-0.52142zm7.9376 1e-3v1.0583h0.52917c0.17198 0 0.28832 0.05775 0.45941 0.22273 0.11172 0.10773 0.22997 0.26253 0.35347 0.43822-0.12352 0.17514-0.24173 0.32892-0.35347 0.43667-0.17109 0.16498-0.28743 0.2248-0.45941 0.2248h-0.52917v1.0583h0.52917c0.48948 0 0.9018-0.23784 1.1937-0.51935 0.09484-0.09145 0.18038-0.18779 0.26045-0.28629 0.08007 0.0985 0.16613 0.19484 0.26097 0.28629 0.29194 0.28151 0.7058 0.51935 1.1953 0.51935h1.0583c0.48948 0 0.9018-0.23784 1.1937-0.51935 0.09484-0.09145 0.18038-0.18779 0.26045-0.28629 0.08007 0.0985 0.16613 0.19484 0.26097 0.28629 0.29194 0.28151 0.7058 0.51935 1.1953 0.51935h1.0583c0.48948 0 0.9018-0.23784 1.1937-0.51935 0.09484-0.09145 0.18038-0.18779 0.26045-0.28629 0.08007 0.0985 0.16613 0.19484 0.26097 0.28629 0.29194 0.28151 0.7058 0.51935 1.1953 0.51935h0.52917v-1.0583h-0.52917c-0.17198 0-0.2878-0.05982-0.45889-0.2248-0.1117-0.10772-0.23096-0.26159-0.35502-0.43667 0.12404-0.17562 0.24333-0.33052 0.35502-0.43822 0.17109-0.16498 0.28691-0.22273 0.45889-0.22273h0.52917v-1.0583h-0.52917c-0.48948 0-0.90335 0.23784-1.1953 0.51935-0.09484 0.09145-0.1809 0.18779-0.26097 0.28629-0.08007-0.0985-0.16561-0.19484-0.26045-0.28629-0.29194-0.28151-0.70426-0.51935-1.1937-0.51935h-1.0583c-0.48948 0-0.90335 0.23784-1.1953 0.51935-0.09484 0.09145-0.1809 0.18779-0.26097 0.28629-0.08007-0.0985-0.16561-0.19484-0.26045-0.28629-0.29194-0.28151-0.70426-0.51935-1.1937-0.51935h-1.0583c-0.48948 0-0.90335 0.23784-1.1953 0.51935-0.09484 0.09145-0.1809 0.18779-0.26097 0.28629-0.08007-0.0985-0.16561-0.19484-0.26045-0.28629-0.29194-0.28151-0.70426-0.51935-1.1937-0.51935zm3.4396 1.0583h1.0583c0.17198 0 0.28832 0.05775 0.45941 0.22273 0.11172 0.10773 0.22997 0.26253 0.35347 0.43822-0.12352 0.17514-0.24173 0.32892-0.35347 0.43667-0.17109 0.16498-0.28743 0.2248-0.45941 0.2248h-1.0583c-0.17198 0-0.2878-0.05982-0.45889-0.2248-0.1117-0.10772-0.23096-0.26159-0.35502-0.43667 0.12404-0.17562 0.24333-0.33052 0.35502-0.43822 0.17109-0.16498 0.28691-0.22273 0.45889-0.22273zm3.9688 0h1.0583c0.17198 0 0.28832 0.05775 0.45941 0.22273 0.11172 0.10773 0.22997 0.26253 0.35347 0.43822-0.12352 0.17514-0.24173 0.32892-0.35347 0.43667-0.17109 0.16498-0.28743 0.2248-0.45941 0.2248h-1.0583c-0.17198 0-0.2878-0.05982-0.45889-0.2248-0.1117-0.10772-0.23096-0.26159-0.35502-0.43667 0.12404-0.17562 0.24333-0.33052 0.35502-0.43822 0.17109-0.16498 0.28691-0.22273 0.45889-0.22273zm-15.346 4.2334v1.0583h0.52917c0.17198 0 0.28832 0.05775 0.45941 0.22273 0.11172 0.10773 0.22997 0.26253 0.35347 0.43822-0.12352 0.17514-0.24173 0.32892-0.35347 0.43667-0.17109 0.16498-0.28743 0.2248-0.45941 0.2248h-0.52917v1.0583h0.52917c0.48948 0 0.9018-0.23784 1.1937-0.51935 0.094839-0.09145 0.18038-0.18779 0.26045-0.28629 0.080071 0.0985 0.16613 0.19484 0.26097 0.28629 0.29194 0.28151 0.7058 0.51935 1.1953 0.51935h1.0583c0.48948 0 0.9018-0.23784 1.1937-0.51935 0.09484-0.09145 0.18038-0.18779 0.26045-0.28629 0.08007 0.0985 0.16613 0.19484 0.26097 0.28629 0.29194 0.28151 0.7058 0.51935 1.1953 0.51935h0.52917v-1.0583h-0.52917c-0.17198 0-0.2878-0.05982-0.45889-0.2248-0.1117-0.10772-0.23096-0.26159-0.35502-0.43667 0.12404-0.17562 0.24333-0.33052 0.35502-0.43822 0.17109-0.16498 0.28691-0.22273 0.45889-0.22273h0.52917v-1.0583h-0.52917c-0.48948 0-0.90335 0.23784-1.1953 0.51935-0.09484 0.09145-0.1809 0.18779-0.26097 0.28629-0.08007-0.0985-0.16561-0.19484-0.26045-0.28629-0.29194-0.28151-0.70425-0.51935-1.1937-0.51935h-1.0583c-0.48948 0-0.90335 0.23784-1.1953 0.51935-0.094839 0.09145-0.1809 0.18779-0.26097 0.28629-0.080071-0.0985-0.16561-0.19484-0.26045-0.28629-0.29194-0.28151-0.70425-0.51935-1.1937-0.51935zm11.906 0v1.0583h0.52917c0.17198 0 0.28832 0.05775 0.45941 0.22273 0.11172 0.10773 0.22997 0.26253 0.35347 0.43822-0.12352 0.17514-0.24173 0.32892-0.35347 0.43667-0.17109 0.16498-0.28743 0.2248-0.45941 0.2248h-0.52917v1.0583h0.52917c0.48948 0 0.9018-0.23784 1.1937-0.51935 0.09484-0.09145 0.18038-0.18779 0.26045-0.28629 0.08007 0.0985 0.16613 0.19484 0.26097 0.28629 0.29194 0.28151 0.7058 0.51935 1.1953 0.51935h1.0583c0.48948 0 0.9018-0.23784 1.1937-0.51935 0.09484-0.09145 0.18038-0.18779 0.26045-0.28629 0.08007 0.0985 0.16613 0.19484 0.26097 0.28629 0.29194 0.28151 0.7058 0.51935 1.1953 0.51935h0.52917v-1.0583h-0.52917c-0.17198 0-0.2878-0.05982-0.45889-0.2248-0.1117-0.10772-0.23096-0.26159-0.35502-0.43667 0.12404-0.17562 0.24333-0.33052 0.35502-0.43822 0.17109-0.16498 0.28691-0.22273 0.45889-0.22273h0.52917v-1.0583h-0.52917c-0.48948 0-0.90335 0.23784-1.1953 0.51935-0.09484 0.09145-0.1809 0.18779-0.26097 0.28629-0.08007-0.0985-0.16561-0.19484-0.26045-0.28629-0.29194-0.28151-0.70426-0.51935-1.1937-0.51935h-1.0583c-0.48948 0-0.90335 0.23784-1.1953 0.51935-0.09484 0.09145-0.1809 0.18779-0.26097 0.28629-0.08007-0.0985-0.16561-0.19484-0.26045-0.28629-0.29194-0.28151-0.70426-0.51935-1.1937-0.51935zm-8.4668 1.0583h1.0583c0.17198 0 0.28832 0.05775 0.45941 0.22273 0.11172 0.10773 0.22997 0.26253 0.35347 0.43822-0.12352 0.17514-0.24173 0.32892-0.35347 0.43667-0.17109 0.16498-0.28743 0.2248-0.45941 0.2248h-1.0583c-0.17198 0-0.2878-0.05982-0.45889-0.2248-0.1117-0.10772-0.23096-0.26159-0.35502-0.43667 0.12404-0.17562 0.24333-0.33052 0.35502-0.43822 0.17109-0.16498 0.28691-0.22273 0.45889-0.22273zm11.906 0h1.0583c0.17198 0 0.28832 0.05775 0.45941 0.22273 0.11172 0.10773 0.22997 0.26253 0.35347 0.43822-0.12352 0.17514-0.24173 0.32892-0.35347 0.43667-0.17109 0.16498-0.28743 0.2248-0.45941 0.2248h-1.0583c-0.17198 0-0.2878-0.05982-0.45889-0.2248-0.1117-0.10772-0.23096-0.26159-0.35502-0.43667 0.12404-0.17562 0.24333-0.33052 0.35502-0.43822 0.17109-0.16498 0.28691-0.22273 0.45889-0.22273z" color="#000000" fill="#ee4e5f" stroke-linecap="square" style="-inkscape-stroke:none"/>
 </g>
</svg>
