<?xml version="1.0" encoding="UTF-8"?>
<svg width="128" height="128" version="1.1" viewBox="0 0 33.867 33.867" xmlns="http://www.w3.org/2000/svg">
 <path transform="matrix(1.9107 .31349 -.31349 1.9107 -13.874 2.2523)" d="m15.875-1.323-4.8898 13.052 13.748-2.2913-8.8585-10.761zm0.2164 3.6927 0.80906-0.13274 0.066327 0.40427 0.26241 1.5994 0.001054-1.728e-4 0.066499 0.40532c0.005037 0.030701 0.009408 0.060744 0.013854 0.091034l0.015123 0.092178-0.002106 3.457e-4c0.18095 1.3744-0.20817 2.314-0.83724 2.8952-0.5735 0.52982-1.2789 0.77562-1.8615 0.98425l1.3454 0.61091-0.92096 0.34583-1.9004-0.86307 0.86311-1.9001 0.92122-0.34587-0.63416 1.3965c0.59579-0.21948 1.2122-0.44394 1.6316-0.83131 0.46474-0.42935 0.76145-1.0376 0.56274-2.3017l-0.043037-0.26231-0.35898-2.188zm3.2623 3.5132 0.98313 0.033157 1.4251 1.525-1.525 1.4251-0.98318-0.033421 1.1183-1.0451c-0.62428-0.011914-1.3923-0.014002-2.1163-0.33785-0.18854-0.084336-0.37043-0.19293-0.54174-0.32816l0.28995-0.82242c0.17673 0.1821 0.37491 0.30687 0.58679 0.40163 0.5112 0.22866 1.1519 0.24807 1.7753 0.26534l-1.0123-1.0831z" fill="#ee4e5f" stroke-linecap="round" stroke-width=".51638"/>
</svg>
