<?xml version="1.0" encoding="UTF-8"?>
<svg width="128" height="128" version="1.1" viewBox="0 0 33.867 33.867" xmlns="http://www.w3.org/2000/svg">
 <g transform="translate(.86042 -.89381)" fill="#ee4e5f">
  <path d="m16.072 6.5071c-5.0046 0-9.0617 1.9413-9.0617 4.3361 0 2.3947 4.0571 4.336 9.0617 4.336 5.0046 0 9.0617-1.9413 9.0617-4.336 0-2.3947-4.0571-4.3361-9.0617-4.3361z"/>
  <path d="m7.0387 13.685c-0.00235 0-0.00366 0.07217-0.00566 0.101l-0.022182-0.01794-4.72e-4 2.0153h4.72e-4v0.01132c-1.333e-4 0.0013-4.72e-4 0.0026-4.72e-4 0.0037 0 0.0013 3.794e-4 0.0025 4.72e-4 0.0037l-4.72e-4 0.79667c-3.52e-5 0.02022-4.7e-6 0.03571 0 0.05758 3.17e-5 1.47e-4 -3.18e-5 3.24e-4 0 4.72e-4v0.72022h0.00142c0 5e-3 -0.00142 0.01008-0.00142 0.01511 0 0.0079 0.00211 0.01568 0.00236 0.0236-2.511e-4 0.13604-8.41e-4 0.24592-9.407e-4 0.38842-1.249e-4 0.16364-0.00145 0.27664-0.00142 0.446 0.46808 2.1851 4.336 3.8899 9.0381 3.8899 0.0082 0 0.01629-4.63e-4 0.02454-4.73e-4 0.0082 1e-5 0.01629 4.73e-4 0.02454 4.73e-4 4.7021 0 8.57-1.7049 9.0381-3.8899 4.1e-5 -0.16936-0.0014-0.28237-0.0014-0.446-1.09e-4 -0.14251-7.27e-4 -0.25239-9.14e-4 -0.38842 2.47e-4 -0.0079 0.0024-0.01566 0.0024-0.0236 0-5e-3 -0.0014-0.01011-0.0014-0.01511h0.0014v-0.72069c5e-6 -0.02186 3.5e-5 -0.03736 0-0.05758l-4.72e-4 -0.79667c9.3e-5 -0.0013 4.72e-4 -0.0025 4.72e-4 -0.0037 0-0.0013-3.43e-4 -0.0025-4.72e-4 -0.0037v-0.01132h4.72e-4l-4.72e-4 -2.0153-0.02218 0.01794c-2e-3 -0.02884-0.0033-0.101-0.0057-0.101-0.01873 0-0.1664 0.12025-0.32754 0.26713-0.95691 0.87225-2.8051 1.7213-4.6295 2.1267-1.2969 0.28817-2.6914 0.42976-4.0773 0.43421-1.3859-0.0045-2.7804-0.14604-4.0773-0.43421-1.8244-0.40537-3.6726-1.2544-4.6295-2.1267-0.16114-0.14688-0.30881-0.26713-0.32754-0.26713z"/>
  <path d="m7.0387 20.692c-0.00235 0-0.00366 0.07217-0.00566 0.101l-0.022182-0.01794-4.72e-4 2.0153h4.72e-4v0.01132c-1.334e-4 0.0013-4.72e-4 0.0026-4.72e-4 0.0037 0 0.0013 3.794e-4 0.0025 4.72e-4 0.0037l-4.72e-4 0.79667c-3.53e-5 0.02022-4.8e-6 0.03571 0 0.05758 3.17e-5 1.48e-4 -3.18e-5 3.25e-4 0 4.73e-4v0.72022h0.00142c0 5e-3 -0.00142 0.01008-0.00142 0.01511 0 0.0079 0.00211 0.01568 0.00236 0.0236-2.511e-4 0.13604-8.41e-4 0.24592-9.407e-4 0.38842-1.25e-4 0.16364-0.00145 0.27664-0.00142 0.446 0.46808 2.1851 4.336 3.8899 9.0381 3.8899 0.0082 0 0.01629-4.63e-4 0.02454-4.73e-4 0.0082 1e-5 0.01629 4.73e-4 0.02454 4.73e-4 4.7021 0 8.57-1.7049 9.0381-3.8899 4.1e-5 -0.16936-0.0014-0.28237-0.0014-0.446-1.09e-4 -0.14251-7.27e-4 -0.25239-9.14e-4 -0.38842 2.47e-4 -0.0079 0.0024-0.01566 0.0024-0.0236 0-5e-3 -0.0014-0.01011-0.0014-0.01511h0.0014v-0.72069c5e-6 -0.02186 3.5e-5 -0.03736 0-0.05758l-4.72e-4 -0.79667c9.3e-5 -0.0013 4.72e-4 -0.0025 4.72e-4 -0.0037 0-0.0013-3.43e-4 -0.0025-4.72e-4 -0.0037v-0.01132h4.72e-4l-4.72e-4 -2.0153-0.02218 0.01794c-2e-3 -0.02884-0.0033-0.101-0.0057-0.101-0.01873 0-0.1664 0.12025-0.32754 0.26713-0.95691 0.87225-2.8051 1.7213-4.6295 2.1267-1.2969 0.28817-2.6914 0.42976-4.0773 0.43421-1.3859-0.0045-2.7804-0.14604-4.0773-0.43421-1.8244-0.40536-3.6726-1.2544-4.6295-2.1267-0.16114-0.14688-0.30881-0.26713-0.32754-0.26713z"/>
 </g>
</svg>
