<?xml version="1.0" encoding="UTF-8"?>
<svg width="128" height="128" version="1.1" viewBox="0 0 33.867 33.867" xmlns="http://www.w3.org/2000/svg">
 <path d="m16.934 5.6633c-6.2242 0-11.27 5.0466-11.27 11.27s5.0466 11.27 11.27 11.27 11.27-5.0456 11.27-11.27-5.0466-11.27-11.27-11.27zm-5.2421 5.4498h10.484a0.79384 0.79384 0 0 1 0.79324 0.79324v4.5362c0.6659 0.30472 1.1328 0.97927 1.1328 1.7549 1e-6 1.058-0.86803 1.9255-1.926 1.9255s-1.9276-0.86751-1.9276-1.9255c0-0.77503 0.46718-1.4488 1.1328-1.7539v-3.7445h-3.6541v8.2864c0.66669 0.30463 1.1348 0.9791 1.1348 1.7549 0 1.058-0.87009 1.9255-1.9281 1.9255s-1.9276-0.86751-1.9276-1.9255c0-0.77585 0.46813-1.4503 1.1348-1.7549v-8.2864h-3.6546v5.6659c0.66591 0.30495 1.1328 0.97916 1.1328 1.7544 0 1.058-0.86958 1.9255-1.9276 1.9255s-1.926-0.86751-1.926-1.9255c0-0.77585 0.46714-1.4503 1.1333-1.7549v-6.4581a0.79384 0.79384 0 0 1 0.79272-0.79324zm10.484 6.2152c-0.486 0-0.86921 0.3832-0.86921 0.86921 0 0.486 0.3832 0.86714 0.86921 0.86714 0.486 0 0.86714-0.38114 0.86714-0.86714 0-0.486-0.38114-0.86921-0.86714-0.86921zm-10.484 1.9219c-0.486 0-0.86921 0.3832-0.86921 0.86921 0 0.486 0.3832 0.86714 0.86921 0.86714 0.486 0 0.86921-0.38114 0.86921-0.86714 0-0.486-0.3832-0.86921-0.86921-0.86921zm5.2421 2.6211c-0.486 0-0.86921 0.3832-0.86921 0.86921 0 0.486 0.3832 0.86714 0.86921 0.86714s0.86921-0.38114 0.86921-0.86714c0-0.486-0.3832-0.86921-0.86921-0.86921z" fill="#ee4e5f"/>
</svg>
