<?xml version="1.0" encoding="UTF-8"?>
<svg width="128" height="128" version="1.1" viewBox="0 0 33.867 33.867" xml:space="preserve" xmlns="http://www.w3.org/2000/svg"><g stroke-linecap="square" stroke-width="2.6459"><path d="m12.268 19.723-5.0331-1.9397c-0.75581 6.3137-5.643 9.0234-5.643 9.0234l-0.014409 1.9866s7.3385-1.5519 10.691-9.0702z" fill="#ee4e5f"/><path d="m1.9661 11.474c0.077473 0.89581 0.27497 2.3773 2.2914 3.2587l10.347 4.0473 2.3182 0.90641 3.2996 1.2909c0.11967 0.44151 0.31628 0.86181 0.56638 1.2366 0.633 0.94864 1.6052 1.709 2.7983 2.188 1.1931 0.479 2.4215 0.60205 3.5347 0.3545 1.1132-0.24754 2.1848-0.93463 2.6448-2.0805 0.46006-1.1459 0.1617-2.385-0.47129-3.3337s-1.6058-1.7075-2.7988-2.1865c-1.1931-0.479-2.4209-0.6036-3.5342-0.35605-1.0464 0.23268-2.0563 0.85551-2.5559 1.881zm22.22 7.8539c0.40288 0.01114 0.86339 0.09683 1.325 0.28216 0.73857 0.29653 1.2992 0.7753 1.5839 1.202s0.28874 0.70173 0.21756 0.87902c-0.07118 0.1773-0.26356 0.37287-0.7643 0.48421-0.50075 0.11135-1.2365 0.0676-1.9751-0.22893-0.73857-0.29653-1.3002-0.77375-1.5849-1.2005s-0.28667-0.7007-0.21549-0.87799c0.07118-0.17729 0.262-0.37338 0.76275-0.48473 0.18778-0.04175 0.40888-0.06198 0.65061-0.05529z" fill="#8b8d8a"/><path d="m16.062 17.921 0.39441 1.7378 0.9179 3.4221c0.42556 0.16779 0.82153 0.40968 1.1664 0.69972 0.87278 0.73407 1.5209 1.7845 1.865 3.0232s0.33044 2.4732-0.03876 3.5522c-0.3692 1.079-1.1706 2.0679-2.3604 2.3984-1.1897 0.33045-2.3883-0.10317-3.2611-0.83724-0.87278-0.73407-1.5193-1.7848-1.8634-3.0236-0.34406-1.2387-0.33204-2.4729 0.03716-3.5519 0.34703-1.0142 1.0778-1.949 2.1523-2.3321l-1.5459-5.7718zm-0.76563 8.9167c-0.0335 0.40164 7.1e-4 0.8688 0.13382 1.3481 0.21299 0.76685 0.6268 1.377 1.0194 1.7072s0.66548 0.36461 0.84956 0.31348c0.18408-0.05113 0.39974-0.22068 0.5658-0.70604 0.16607-0.48535 0.20399-1.2214-9e-3 -1.9883-0.21299-0.76685-0.62514-1.3778-1.0177-1.708s-0.66468-0.36244-0.84876-0.31131c-0.18408 0.05113-0.40008 0.21908-0.56614 0.70444-0.06227 0.18201-0.10684 0.39952-0.12694 0.6405z" fill="#8b8d8a"/><path d="m8.4615 12.45 8.6646 3.4631c2.3806-1.3774 4.6619-1.9566 8.4335-1.4803 3.1776-6.9839-0.62734-12.214-2.1321-13.81-9.5867-0.28043-12.217 3.9707-14.966 11.828zm10.834-9.1512 2.2872 0.80461-1.9157 3.5729 3.8039-1.2816 0.44701 2.2934-4.1037 0.15761 3.1084 2.6707-1.7932 1.5296-2.1472-3.4257-0.75138 4.007-2.2872-0.80461 1.9265-3.5688-3.7931 1.2852-0.45838-2.2976 4.1042-0.1571-3.1084-2.6712 1.7958-1.5038 2.1518 3.3776z" fill="#ee4e5f"/></g></svg>
