<?xml version="1.0" encoding="UTF-8"?>
<svg width="64" height="64" version="1.1" viewBox="0 0 64 64" xmlns="http://www.w3.org/2000/svg">
 <g transform="scale(1.1178 .89465)" fill="#f00" stroke="#f00" stroke-width="3" aria-label="B">
  <path d="m23.693 33.264q6.2952 0 9.0136-2.2176 2.7899-2.2176 2.7899-7.0105 0-4.3637-2.7899-6.4383-2.7184-2.1461-9.0136-2.1461h-1.073v17.813zm-1.073 20.245q0 0.7869 0.50075 1.2877 0.50075 0.50075 1.2161 0.7869 0.7869 0.28614 1.6453 0.42922 0.85844 0.07154 1.6453 0.07154 2.7184 0 4.936-0.42922 2.2176-0.42922 3.7914-1.5023 1.5738-1.073 2.4322-2.8614 0.85844-1.8599 0.85844-4.6499 0-5.1506-3.5768-7.7974-3.5053-2.6468-9.6574-2.6468h-3.7914zm11.589-19.315q2.2892 0.28614 4.5783 1.073 2.2892 0.71536 4.1491 2.0745 1.8599 1.3592 3.0045 3.4337 1.1446 2.003 1.1446 4.7929 0 3.1476-1.2161 5.6514-1.1446 2.5038-3.3622 4.2206-2.1461 1.7169-5.2221 2.6468t-6.7959 0.92997h-11.303q-1.2161 0-2.7899 0.07154-1.5023 0.07154-2.8614 0.14307-1.5738 0.07154-3.2191 0.14307-0.07154-0.14307-0.07154-0.42922-0.07154-0.14307-0.07154-0.35768 0-0.21461 0-0.35768 0-1.0015 0.7869-1.1446 2.7899-0.57229 3.863-1.073 1.073-0.57229 1.073-2.003v-36.412q0-0.71536-0.28614-1.1446-0.21461-0.50075-0.7869-0.7869-0.57229-0.35768-1.5023-0.57229-0.92997-0.28614-2.3607-0.57229-0.7869-0.14307-0.7869-1.3592 0-0.35768 0.07154-0.57229 0-0.21461 0.07154-0.42922 2.1461 0.14307 4.5783 0.28614 2.5038 0.07154 4.2206 0.07154h8.799q4.006 0 6.7959 0.92997 2.8614 0.85844 4.6499 2.4322t2.5753 3.6483q0.85844 2.003 0.85844 4.2206 0 1.6453-0.64383 3.2191-0.64383 1.5738-1.7884 2.933-1.073 1.3592-2.6468 2.4322-1.5738 1.073-3.5053 1.6453z"/>
 </g>
</svg>
