<?xml version="1.0" encoding="UTF-8" standalone="no"?>
<svg
   width="64"
   height="64"
   version="1.1"
   viewBox="0 0 64 64"
   id="svg9"
   sodipodi:docname="blastax.svg"
   inkscape:export-filename="..\..\..\Desktop\blastax.png"
   inkscape:export-xdpi="48"
   inkscape:export-ydpi="48"
   inkscape:version="1.3.2 (091e20e, 2023-11-25, custom)"
   xmlns:inkscape="http://www.inkscape.org/namespaces/inkscape"
   xmlns:sodipodi="http://sodipodi.sourceforge.net/DTD/sodipodi-0.dtd"
   xmlns="http://www.w3.org/2000/svg"
   xmlns:svg="http://www.w3.org/2000/svg">
  <defs
     id="defs9" />
  <sodipodi:namedview
     id="namedview9"
     pagecolor="#ffffff"
     bordercolor="#000000"
     borderopacity="0.25"
     inkscape:showpageshadow="2"
     inkscape:pageopacity="0.0"
     inkscape:pagecheckerboard="0"
     inkscape:deskcolor="#d1d1d1"
     inkscape:zoom="8.9824658"
     inkscape:cx="22.098609"
     inkscape:cy="19.983377"
     inkscape:window-width="1920"
     inkscape:window-height="1009"
     inkscape:window-x="-8"
     inkscape:window-y="-8"
     inkscape:window-maximized="1"
     inkscape:current-layer="svg9" />
  <path
     d="m29.052 6.0779-0.13891 0.5926-0.13392 0.56543-0.76429 3.2417-0.44668 1.8919 0.41212 0.15518c2.7754 1.0413 5.0186 2.5879 5.6772 3.6623 0.43372 0.70738 0.82512 2.297 1.0306 4.1634 0.20544 1.8664 0.25714 4.0306 0.15577 6.007-0.08396 1.636-0.23048 3.1045-0.37087 4.309l-0.07364 0.62256 4.2128-0.45392 0.05074-0.39087c0.16252-1.2294 0.33889-2.7703 0.46014-4.4892 0.29617-4.1992 0.50412-9.4247-1.6205-13.307l-2e-3 -7.7e-5c-1.6844-3.0777-4.675-4.8458-7.8937-6.317zm-21.101 1.4804s-0.28965 5.8761 0.3786 12.441c0.61984 6.0886 1.6032 12.742 5.9258 16.227 1.9125 1.542 4.289 2.2558 7.3997 2.4231 3.1108 0.16732 6.9808-0.19581 12.011-0.82574l0.0118-0.0034c6.242-0.93448 6.4958-0.94434 6.7833-0.94779 1.0214-0.01239 1.9913 0.08315 2.7396 0.26736 0.7483 0.18425 1.2472 0.48983 1.3744 0.68215-0.03209-0.04854 0.05121 0.13318 0.08993 0.39256 0.03871 0.25938 0.06792 0.61531 0.08803 1.0297 0.0402 0.82879 0.04149 1.901 0.0163 3.0284-0.04678 2.0933-0.18962 4.2424-0.31886 5.5562-1.8041 0.18752-3.294 0.0075-4.3395-0.34081-0.56507-0.18828-1.0132-0.41388-1.3278-0.62361-0.3146-0.20973-0.49207-0.42606-0.51671-0.47405l-0.03639-0.06791-0.0545-0.05494c-0.08175-0.08223-0.23966-0.365-0.35987-0.78055-0.12021-0.41556-0.2195-0.96009-0.28884-1.5831-0.13867-1.2459-0.15966-2.8051-0.05747-4.3514 0.0033-0.05063 0.0081-0.10352 0.01253-0.1676l0.04538-0.6491-4.1048 0.78465-0.02326 0.38805c-0.01116 0.18745-0.02922 0.3781-0.03938 0.59656-0.08245 1.7756-0.12744 3.6443 0.08787 5.3065 0.21531 1.6622 0.68227 3.1498 1.745 4.0883 1.8943 1.6727 6.3903 2.9709 12.039 1.5171l0.32777-0.08273 0.40991-3.0799 7.7e-5 -2e-3c0.19752-1.4513 0.35711-4.2645 0.33107-6.9924-0.01302-1.3643-0.07275-2.7019-0.20311-3.8353-0.13036-1.1334-0.30166-2.045-0.66976-2.6694-0.69042-1.1711-1.8385-1.7978-3.0983-2.1093-1.2598-0.3115-2.6574-0.33666-4.0003-0.31754l-0.02155 0.0011-11.922 1.1987c-1.8543 0.05155-3.931-0.10418-5.7172-0.44842-1.7886-0.34471-3.2914-0.91574-3.9352-1.5112-0.67229-0.62179-1.4578-2.3174-2.0361-4.4869-0.5783-2.1695-0.99764-4.819-1.1706-7.4235-0.36927-5.5655-0.0028-10.587-0.0028-10.587l0.030947-0.4327-6.5055-0.9235-0.59869-0.13329s-0.00179 0.045289-0.00186 0.046838z"
     fill="#f00"
     id="path7"
     style="fill:#e0061d;fill-opacity:1" />
  <path
     d="m49.55 9.7666c-3.7207 2.5255-1.1827 9.4711 2.1424 8.6447 2.3402-0.5816 3.4329-2.7911 2.7843-4.9876-0.91417-3.0961-3.8671-4.3765-4.9267-3.6573z"
     fill="#eb9597"
     id="path8"
     style="fill:#eb6572;fill-opacity:1" />
  <path
     d="m9.799 45.349c-0.50959 10.5 13.316 17.069 25.713 14.886 4.9051-0.86388 8.9874-2.1791 12.306-5.4828-18.024 4.9003-26.026-0.43728-30.782-6.2804-1.2634-1.5522-6.9007-7.1992-7.237-3.1226z"
     fill="#eb9597"
     id="path9"
     style="fill:#eb6572;fill-opacity:1" />
</svg>
