<?xml version="1.0" encoding="UTF-8"?>
<svg width="256" height="64" version="1.1" viewBox="0 0 256 64" xmlns="http://www.w3.org/2000/svg">
 <g fill="#f00" stroke="#f00" aria-label="BLAST">
  <path d="m36.837 30.726q2.016 0.192 3.696 0.816 1.728 0.576 2.976 1.584 1.248 0.96 1.92 2.304 0.72 1.344 0.72 2.976 0 2.208-0.864 3.888-0.816 1.68-2.352 2.832-1.488 1.104-3.648 1.68t-4.8 0.576h-8.304q-0.864 0-1.968 0-1.056 0.048-2.016 0.144-0.576 0.048-1.152 0.048-0.576 0.048-1.104 0.048l-0.048-0.336q-0.048-0.144-0.048-0.24 0-0.144 0-0.24 0-0.528 0.144-0.672 0.192-0.192 0.432-0.24 1.68-0.24 2.352-0.672 0.72-0.432 0.72-1.392v-24.048q0-0.96-0.624-1.344-0.624-0.432-2.448-0.72-0.384-0.096-0.48-0.336-0.096-0.288-0.096-0.672 0-0.096 0-0.192 0-0.144 0.048-0.24 0-0.192 0.048-0.336 1.44 0.096 3.216 0.192 1.824 0.048 2.976 0.048h6.624q3.072 0 5.088 0.624 2.016 0.576 3.216 1.632t1.68 2.448q0.528 1.344 0.528 2.832 0 2.784-1.824 4.464-1.824 1.632-4.608 2.4zm-7.296 12.624q0 1.104 1.008 1.44 1.056 0.288 2.4 0.288 3.312 0 4.944-1.392 1.632-1.44 1.632-4.608 0-1.728-0.624-3.024-0.576-1.296-1.584-2.112-1.008-0.864-2.352-1.296t-2.832-0.432h-2.592zm0.768-13.536q1.872 0 3.12-0.48t1.968-1.296q0.768-0.864 1.056-1.92 0.336-1.056 0.336-2.208 0-1.104-0.384-2.064-0.336-1.008-1.104-1.728t-2.016-1.104q-1.248-0.432-2.976-0.432h-0.768v11.232z"/>
  <path d="m59.445 43.302q0 1.008 1.296 1.344t4.272 0.336h1.824q1.2 0 2.064-0.24 0.912-0.288 1.584-0.912t1.2-1.584q0.576-1.008 1.104-2.4 0.144-0.384 0.72-0.384 0.24 0 0.576 0.144t0.672 0.288q-0.384 1.536-0.72 3.36-0.288 1.776-0.528 3.504-0.048 0.576-0.336 0.72-0.24 0.144-0.528 0.144-0.384 0-1.104-0.048-0.672-0.048-1.488-0.096-0.816 0-1.68-0.048-0.816-0.048-1.44-0.048h-10.896q-1.392 0-3.216 0.048-1.776 0.096-3.216 0.192-0.096-0.192-0.096-0.48 0-0.336 0-0.48 0-0.72 0.48-0.768 1.824-0.336 2.592-0.72 0.816-0.384 0.816-1.344v-24.048q0-0.48-0.096-0.768-0.096-0.336-0.384-0.576t-0.912-0.384q-0.576-0.192-1.584-0.336-0.48-0.144-0.48-0.816 0-0.144 0-0.432t0.096-0.528q1.536 0.096 3.264 0.192 1.728 0.048 3.072 0.048 0.672 0 1.536 0 0.864-0.048 1.776-0.048 0.96-0.048 1.872-0.096 0.96-0.048 1.728-0.096 0.048 0.24 0.048 0.528 0.048 0.288 0.048 0.432 0 0.672-0.48 0.816-2.064 0.288-2.784 0.768-0.672 0.432-0.672 1.392z"/>
  <path d="m94.869 36.822h-10.08l-2.496 6.672q-0.144 0.24-0.192 0.528t-0.048 0.432q0 0.528 0.48 0.864 0.528 0.336 2.064 0.576 0.672 0.096 0.672 0.912 0 0.336-0.096 0.816-1.296-0.096-2.736-0.192-1.44-0.048-2.832-0.048-0.96 0-2.016 0.048t-2.352 0.192q-0.096-0.192-0.096-0.432t0-0.384q0-0.912 0.624-0.96 1.488-0.288 2.112-0.624 0.672-0.336 1.056-1.152l11.568-27.648q0.384-0.816 1.152-0.816 0.24 0 0.48 0.048 0.24 0 0.528 0.048l11.568 28.512q0.288 0.72 1.104 1.104 0.816 0.336 1.776 0.48 0.72 0.144 0.72 0.96 0 0.384-0.096 0.864-1.536-0.096-3.024-0.192-1.488-0.048-2.784-0.048-0.672 0-1.632 0-0.96 0.048-1.968 0.096t-2.016 0.048q-0.96 0.048-1.632 0.096-0.096-0.192-0.096-0.432t0-0.384q0-0.432 0.144-0.624 0.192-0.24 0.384-0.288 1.248-0.24 1.824-0.528 0.624-0.336 0.624-0.96 0-0.288-0.144-0.72zm-0.912-2.4-4.08-10.8-4.176 10.8z"/>
  <path d="m129.05 23.958q-0.432 0.144-0.912 0.144-0.672 0-0.96-0.24-0.288-0.288-0.384-0.576-1.104-2.736-2.88-3.936-1.728-1.2-4.656-1.2-2.304 0-3.936 1.152-1.584 1.104-1.584 3.408 0 1.776 1.2 2.88 1.248 1.056 3.072 1.872 1.872 0.816 3.984 1.584 2.16 0.768 3.984 1.92 1.872 1.152 3.072 2.928 1.248 1.776 1.248 4.56 0 1.824-0.624 3.552t-1.968 3.072q-1.344 1.296-3.408 2.112-2.064 0.768-4.944 0.768-3.168 0-5.664-0.672-2.496-0.72-4.128-1.536-0.144-2.064-0.48-4.032-0.288-2.016-0.672-3.888 0.48-0.192 1.104-0.192 0.576 0 0.864 0.24 0.288 0.192 0.48 0.72 0.624 1.824 1.392 3.168 0.768 1.296 1.776 2.16 1.008 0.816 2.304 1.2 1.344 0.384 3.072 0.384 1.488 0 2.544-0.384 1.056-0.432 1.728-1.104t1.008-1.584 0.336-1.872q0-2.064-1.2-3.216-1.152-1.2-2.928-1.968-1.728-0.816-3.792-1.488-2.016-0.72-3.792-1.776-1.728-1.104-2.928-2.784-1.152-1.728-1.152-4.608 0-1.92 0.672-3.552 0.72-1.68 2.064-2.88 1.344-1.248 3.216-1.968 1.92-0.72 4.368-0.72 2.016 0 4.032 0.432 2.064 0.432 4.656 1.44 0.096 1.44 0.288 3.264 0.24 1.776 0.528 3.216z"/>
  <path d="m150.79 18.582v25.248q0 0.48 0.048 0.816 0.096 0.288 0.384 0.528t0.816 0.432q0.528 0.144 1.488 0.288 0.72 0.144 0.72 0.816 0 0.144-0.048 0.432 0 0.288-0.048 0.48-1.536-0.096-3.312-0.192-1.728-0.048-3.072-0.048-1.392 0-3.12 0.048-1.68 0.096-3.216 0.192-0.096-0.192-0.144-0.48 0-0.288 0-0.432 0-0.336 0.096-0.528 0.144-0.24 0.672-0.336 1.776-0.24 2.208-0.624 0.48-0.432 0.48-1.392v-25.248h-4.224q-1.344 0-2.304 0.288-0.912 0.24-1.632 0.816-0.672 0.528-1.248 1.44-0.528 0.864-1.104 2.112-0.192 0.432-0.72 0.432-0.288 0-0.672-0.096-0.384-0.144-0.576-0.24 0.336-1.152 0.576-2.016 0.24-0.912 0.384-1.776 0.192-1.104 0.288-1.968t0.24-1.248q0.192-0.432 0.768-0.432 0.528 0 2.064 0.144 1.584 0.144 3.792 0.144h14.784q2.16 0 3.696-0.144 1.584-0.144 2.16-0.144 0.528 0 0.768 0.432 0.144 0.384 0.192 1.248 0.096 0.864 0.336 1.968 0.144 0.864 0.336 1.776 0.24 0.864 0.624 2.016-0.24 0.096-0.624 0.24-0.336 0.096-0.624 0.096-0.528 0-0.768-0.432-0.576-1.248-1.152-2.112-0.528-0.912-1.248-1.44-0.672-0.576-1.632-0.816-0.912-0.288-2.208-0.288z"/>
 </g>
 <g aria-label="align">
  <path d="m178.05 43.867q-1.4213 0-2.4613-0.48533-1.04-0.52-1.7333-1.3867-0.65867-0.86667-1.0053-2.0453-0.312-1.1787-0.312-2.5307 0-1.8373 0.58934-3.224 0.58933-1.4213 1.5253-2.392 0.97067-0.97067 2.2187-1.456 1.2827-0.48533 2.6347-0.48533 0.832 0 1.4907 0.13867t1.144 0.312q0.55467 0.17333 1.0053 0.416l2.1147-1.144 0.312 0.104q0 2.704 0 5.3733 0.0347 2.6347 0.0347 5.3387 0 1.3867 1.1787 1.3173 0.27733 0 0.45066-0.06933 0.17334-0.104 0.312-0.17333 0.13867-0.104 0.27734-0.24267l0.24266 0.34667q-0.27733 0.65867-0.69333 1.144-0.38133 0.45067-0.936 0.79733t-1.3867 0.34667q-1.352 0-1.9413-0.832-0.58934-0.832-0.58934-2.1493v-0.90133q-0.208 0.728-0.55466 1.456-0.34667 0.69333-0.90134 1.248-0.52 0.52-1.2827 0.86667-0.728 0.312-1.7333 0.312zm4.472-7.8347q0-0.936-0.13866-1.8027-0.104-0.86667-0.45067-1.5253-0.34667-0.69333-0.936-1.1093-0.58934-0.416-1.56-0.416-0.58934 0-1.248 0.27733-0.65867 0.27733-1.2133 0.90133-0.55467 0.624-0.90133 1.664-0.34667 1.04-0.34667 2.5307 0 1.1093 0.208 2.1147 0.24267 0.97067 0.65867 1.6987 0.45066 0.728 1.0747 1.1787 0.65867 0.416 1.4907 0.416 0.76267 0 1.3867-0.45067t1.04-1.1787q0.45067-0.76267 0.69334-1.768 0.24266-1.0053 0.24266-2.1493z"/>
  <path d="m197.46 43.521q-0.832-0.03467-1.9067-0.06933-1.04-0.03467-2.1493-0.03467-1.0747 0-2.1493 0.03467-1.04 0.03467-1.872 0.06933v-0.76267l1.8027-0.416q0.45067-0.104 0.624-0.27733 0.17333-0.17333 0.17333-0.69333v-17.195q0-0.728-0.416-1.0747t-1.8373-0.76267v-0.65867q0.34667-0.06933 0.90133-0.17333 0.55467-0.104 1.2133-0.24267 0.65866-0.13867 1.3173-0.312 0.69334-0.208 1.2827-0.416h0.79733v20.765q0 0.69333 0.13867 0.86667 0.13867 0.13867 0.65867 0.27733l1.4213 0.312z"/>
  <path d="m203.18 22.235q0.79734 0 1.352 0.58933 0.58933 0.55467 0.58933 1.352 0 0.69333-0.58933 1.2827-0.58934 0.55467-1.3867 0.55467-0.79734 0-1.3173-0.52-0.52-0.55467-0.52-1.3173 0-0.79734 0.55467-1.352 0.55467-0.58933 1.3173-0.58933zm3.64 21.32q-0.55467-0.06933-1.5947-0.104t-2.4267-0.03467-2.4267 0.03467-1.5947 0.104v-0.76267l1.56-0.34667q1.0747-0.208 1.0747-1.2827v-6.5173q0-0.832-0.416-1.2133t-1.664-0.65867v-0.69333q0.624-0.13867 1.2827-0.38133 0.65867-0.27733 1.2827-0.58933 0.624-0.34667 1.144-0.728 0.52-0.38133 0.832-0.832 0.208 0 0.38133 0.03467 0.208 0 0.38134 0v11.683q0 0.52 0.13866 0.79733 0.17334 0.24267 0.624 0.34667l1.4213 0.38133z"/>
  <path d="m214.03 43.313q-1.3173 0-2.3573-0.45067-1.0053-0.48533-1.6987-1.2827-0.69334-0.832-1.0747-1.976-0.34667-1.144-0.34667-2.496 0-1.7333 0.55467-3.0853t1.4907-2.2533q0.936-0.936 2.1493-1.4213 1.248-0.48533 2.6347-0.48533 0.97067 0 1.6987 0.13867t1.2133 0.312q0.58933 0.17333 0.97066 0.416l2.1493-1.2827 0.312 0.104v13.139q0 1.3173-0.52 2.4613-0.52 1.1093-1.456 1.9413-0.90134 0.832-2.184 1.3173-1.2827 0.48533-2.808 0.48533-1.9067 0-3.0507-0.27733t-1.7333-0.69333q-0.58934-0.416-0.79734-0.936-0.17333-0.48533-0.17333-0.90133 0-0.69333 0.416-1.04t1.0747-0.34667 0.97067 0.24267q0.312 0.208 0.48533 0.55467 0.17333 0.312 0.27733 0.69333 0.13867 0.416 0.416 0.728 0.27734 0.34667 0.76267 0.55467 0.52 0.24267 1.456 0.24267 1.8373 0 2.7733-1.1093 0.97067-1.1093 0.97067-3.4667v-3.848q-0.208 0.76267-0.58934 1.4907-0.34667 0.728-0.90133 1.2827-0.55467 0.55467-1.3173 0.90133-0.76266 0.34667-1.768 0.34667zm4.576-7.3493q0-0.86667-0.13867-1.7333-0.104-0.86667-0.45067-1.5253-0.312-0.69333-0.97067-1.1093-0.624-0.45067-1.664-0.45067-0.624 0-1.2827 0.27733-0.624 0.24267-1.144 0.86667-0.48533 0.58933-0.79733 1.5947-0.312 0.97067-0.312 2.4267 0 1.04 0.17333 2.0107 0.208 0.936 0.58934 1.6293 0.38133 0.69333 1.0053 1.1093 0.624 0.416 1.456 0.416t1.4907-0.45067 1.1093-1.1787q0.45067-0.76267 0.69334-1.7333 0.24267-1.0053 0.24267-2.0453z"/>
  <path d="m240.65 43.521q-1.8027-0.104-3.848-0.104-2.0453 0-3.848 0.104v-0.728l1.4907-0.27733q0.76266-0.104 0.76266-1.352v-5.8587q0-0.832-0.104-1.4907-0.0693-0.69333-0.34666-1.144-0.24267-0.45067-0.728-0.69333-0.48534-0.24267-1.2827-0.24267-0.936 0-1.9067 0.52-0.936 0.52-1.7333 1.352v7.9387q0 0.55467 0.83201 0.76267l1.4213 0.48533v0.728q-0.58933-0.06933-1.2133-0.06933-0.58934-0.03467-1.664-0.03467h-1.1093q-1.144 0-2.184 0.03467-1.04 0-1.6293 0.06933v-0.728l1.6293-0.34667q0.69333-0.17333 0.69333-1.04v-6.864q0-1.0747-0.45067-1.456-0.416-0.38133-1.5253-0.55467v-0.624q0.55467-0.13867 1.1787-0.34667 0.65866-0.24267 1.248-0.58933 0.624-0.38133 1.144-0.86667 0.55467-0.48533 0.86667-1.144h0.76266v3.2587q1.144-1.2133 2.496-1.9067 1.3867-0.728 2.6-0.728 2.0107 0 3.12 1.1787 1.144 1.1787 1.144 3.5707v6.7253q0 0.65867 0.17334 1.0053 0.17333 0.312 0.69333 0.45067l1.3173 0.27733z"/>
 </g>
</svg>
